<svg xmlns="http://www.w3.org/2000/svg" width="164.887" height="193.984" viewBox="0 0 164.887 193.984">
  <g id="meeting" transform="translate(-36)">
    <g id="Group_36" data-name="Group 36" transform="translate(81.263 122.857)">
      <g id="Group_35" data-name="Group 35">
        <path id="Path_23" data-name="Path 23" d="M215.895,304H151.233a3.233,3.233,0,0,0,0,6.466h29.1v61.428a3.233,3.233,0,1,0,6.466,0V310.466h29.1a3.233,3.233,0,0,0,0-6.466Z" transform="translate(-148 -304)" fill="#3d7475"/>
      </g>
    </g>
    <g id="Group_38" data-name="Group 38" transform="translate(139.458 93.759)">
      <g id="Group_37" data-name="Group 37" transform="translate(0)">
        <path id="Path_24" data-name="Path 24" d="M337.263,232A16.166,16.166,0,0,0,321.1,248.165V274.03a3.233,3.233,0,0,1-3.233,3.233H301.7a9.7,9.7,0,0,0-9.7,9.7v35.564a9.7,9.7,0,0,0,19.4,0V299.895a3.233,3.233,0,0,1,3.233-3.233h29.1a9.7,9.7,0,0,0,9.7-9.7v-38.8A16.166,16.166,0,0,0,337.263,232Zm9.7,54.962a3.233,3.233,0,0,1-3.233,3.233h-29.1a9.7,9.7,0,0,0-9.7,9.7v22.632a3.233,3.233,0,0,1-6.466,0V286.962a3.233,3.233,0,0,1,3.233-3.233h16.165a9.7,9.7,0,0,0,9.7-9.7V248.165a9.7,9.7,0,1,1,19.4,0Z" transform="translate(-292 -232)" fill="#3d7475"/>
      </g>
    </g>
    <g id="Group_40" data-name="Group 40" transform="translate(168.556 58.195)">
      <g id="Group_39" data-name="Group 39">
        <path id="Path_25" data-name="Path 25" d="M380.165,144a16.165,16.165,0,1,0,16.165,16.165A16.185,16.185,0,0,0,380.165,144Zm0,25.865a9.7,9.7,0,1,1,9.7-9.7A9.7,9.7,0,0,1,380.165,169.865Z" transform="translate(-364 -144)" fill="#3d7475"/>
      </g>
    </g>
    <g id="Group_42" data-name="Group 42" transform="translate(36 93.759)">
      <g id="Group_41" data-name="Group 41">
        <path id="Path_26" data-name="Path 26" d="M87.729,277.263H71.564a3.233,3.233,0,0,1-3.233-3.233V248.165a16.165,16.165,0,1,0-32.331,0v38.8a9.7,9.7,0,0,0,9.7,9.7H74.8a3.233,3.233,0,0,1,3.233,3.233v22.632a9.7,9.7,0,0,0,19.4,0V286.962A9.7,9.7,0,0,0,87.729,277.263Zm3.233,45.263a3.233,3.233,0,0,1-6.466,0V299.895a9.7,9.7,0,0,0-9.7-9.7H45.7a3.233,3.233,0,0,1-3.233-3.233v-38.8a9.7,9.7,0,1,1,19.4,0V274.03a9.7,9.7,0,0,0,9.7,9.7H87.729a3.233,3.233,0,0,1,3.233,3.233Z" transform="translate(-36 -232)" fill="#3d7475"/>
      </g>
    </g>
    <g id="Group_44" data-name="Group 44" transform="translate(36 58.195)">
      <g id="Group_43" data-name="Group 43">
        <path id="Path_27" data-name="Path 27" d="M52.165,144a16.165,16.165,0,1,0,16.165,16.165A16.166,16.166,0,0,0,52.165,144Zm0,25.865a9.7,9.7,0,1,1,9.7-9.7A9.7,9.7,0,0,1,52.165,169.865Z" transform="translate(-36 -144)" fill="#3d7475"/>
      </g>
    </g>
    <g id="Group_46" data-name="Group 46" transform="translate(84.496 71.127)">
      <g id="Group_45" data-name="Group 45">
        <path id="Path_28" data-name="Path 28" d="M236.113,186.912a3.234,3.234,0,0,0-3.166-1.149l-9.2,1.836a2.587,2.587,0,0,1-2.15-.537,2.548,2.548,0,0,1-.938-2.011A9.069,9.069,0,0,0,211.609,176H165.053A9.069,9.069,0,0,0,156,185.052v27.158a9.069,9.069,0,0,0,9.053,9.053h46.556a9.069,9.069,0,0,0,9.053-9.053v-7.546a2.564,2.564,0,0,1,.97-2.024l13.977-11.183A3.233,3.233,0,0,0,236.113,186.912ZM217.6,197.59a9.007,9.007,0,0,0-3.4,7.074v7.546a2.586,2.586,0,0,1-2.586,2.586H165.053a2.586,2.586,0,0,1-2.586-2.586V185.052a2.586,2.586,0,0,1,2.586-2.586h46.556a2.586,2.586,0,0,1,2.586,2.586,9.053,9.053,0,0,0,7.84,8.981Z" transform="translate(-156 -175.999)" fill="#3d7475"/>
      </g>
    </g>
    <g id="Group_48" data-name="Group 48" transform="translate(71.563)">
      <g id="Group_47" data-name="Group 47">
        <path id="Path_29" data-name="Path 29" d="M195.126,0H140.164a9.7,9.7,0,0,0-9.7,9.7V35.564a9.7,9.7,0,0,0,4.62,8.261l-10.543,15.81a3.233,3.233,0,0,0,4.63,4.381L153.313,45.91a3.256,3.256,0,0,1,1.94-.647h39.873a9.7,9.7,0,0,0,9.7-9.7V9.7A9.7,9.7,0,0,0,195.126,0Zm3.233,35.564a3.233,3.233,0,0,1-3.233,3.233H155.253a9.743,9.743,0,0,0-5.82,1.94l-9.053,6.789,2.464-3.692a3.233,3.233,0,0,0-2.68-5.037,3.233,3.233,0,0,1-3.233-3.233V9.7a3.233,3.233,0,0,1,3.233-3.233h54.962A3.233,3.233,0,0,1,198.36,9.7Z" transform="translate(-123.998)" fill="#3d7475"/>
      </g>
    </g>
    <g id="Group_50" data-name="Group 50" transform="translate(90.962 19.398)">
      <g id="Group_49" data-name="Group 49">
        <path id="Path_30" data-name="Path 30" d="M217.263,48h-42.03a3.233,3.233,0,0,0,0,6.466h42.03a3.233,3.233,0,0,0,0-6.466Z" transform="translate(-172 -48)" fill="#3d7475"/>
      </g>
    </g>
    <g id="Group_52" data-name="Group 52" transform="translate(97.428 90.526)">
      <g id="Group_51" data-name="Group 51">
        <path id="Path_31" data-name="Path 31" d="M223.564,224H191.233a3.233,3.233,0,1,0,0,6.466h32.331a3.233,3.233,0,0,0,0-6.466Z" transform="translate(-188 -224)" fill="#3d7475"/>
      </g>
    </g>
  </g>
</svg>
