<svg id="dish" xmlns="http://www.w3.org/2000/svg" width="190.773" height="190.773" viewBox="0 0 190.773 190.773">
  <g id="Group_17" data-name="Group 17" transform="translate(101.75 47.675)">
    <g id="Group_16" data-name="Group 16">
      <path id="Path_13" data-name="Path 13" d="M289.354,136.576l-2.041-6.718a14.594,14.594,0,0,0-27.637,0l-2.041,6.718a37.738,37.738,0,0,0-1.052,17.488,16.448,16.448,0,0,0,8.47,11.462l-2.286,51.1a10.069,10.069,0,0,0,2.544,7.828,11.106,11.106,0,0,0,15.691.7q.367-.336.7-.7a9.933,9.933,0,0,0,2.544-7.615l-2.3-51.324a16.444,16.444,0,0,0,8.458-11.456A37.738,37.738,0,0,0,289.354,136.576Zm-5.211,16.381a10.082,10.082,0,0,1-6.6,7.6,3.179,3.179,0,0,0-2.057,3.119l2.416,53.674a3.678,3.678,0,0,1-.954,2.881,4.912,4.912,0,0,1-6.912,0,3.816,3.816,0,0,1-.935-3.091l2.4-53.464a3.179,3.179,0,0,0-2.057-3.119,10.082,10.082,0,0,1-6.6-7.6,31.355,31.355,0,0,1,.874-14.518l2.041-6.722a8.245,8.245,0,0,1,15.465,0l2.041,6.722A31.4,31.4,0,0,1,284.143,152.958Z" transform="translate(-256.012 -119.955)" fill="#3d7475"/>
    </g>
  </g>
  <g id="Group_19" data-name="Group 19" transform="translate(54.052 47.693)">
    <g id="Group_18" data-name="Group 18">
      <path id="Path_14" data-name="Path 14" d="M167.8,120a3.18,3.18,0,0,0-3.18,3.18v27.3l-8.607,8.607a3.18,3.18,0,0,0-.932,2.407l2.782,55.642a4.331,4.331,0,0,1-1.2,3.24,4.477,4.477,0,0,1-6.331.028l-.028-.028a4.33,4.33,0,0,1-1.2-3.24l2.8-55.642a3.18,3.18,0,0,0-.928-2.407l-8.61-8.607v-27.3a3.18,3.18,0,0,0-6.359,0V151.8a3.179,3.179,0,0,0,.932,2.248l8.54,8.543-2.712,54.24a10.741,10.741,0,1,0,21.456,1.045q.026-.522,0-1.045l-2.712-54.24,8.54-8.543a3.179,3.179,0,0,0,.932-2.248V123.18A3.18,3.18,0,0,0,167.8,120Z" transform="translate(-136 -120)" fill="#3d7475"/>
    </g>
  </g>
  <g id="Group_21" data-name="Group 21" transform="translate(63.591 47.693)">
    <g id="Group_20" data-name="Group 20">
      <path id="Path_15" data-name="Path 15" d="M163.18,120a3.18,3.18,0,0,0-3.18,3.18v25.436a3.18,3.18,0,1,0,6.359,0V123.18A3.18,3.18,0,0,0,163.18,120Z" transform="translate(-160 -120)" fill="#3d7475"/>
    </g>
  </g>
  <g id="Group_23" data-name="Group 23" transform="translate(73.13 47.693)">
    <g id="Group_22" data-name="Group 22">
      <path id="Path_16" data-name="Path 16" d="M187.18,120a3.18,3.18,0,0,0-3.18,3.18v25.436a3.18,3.18,0,1,0,6.359,0V123.18A3.18,3.18,0,0,0,187.18,120Z" transform="translate(-184 -120)" fill="#3d7475"/>
    </g>
  </g>
  <g id="Group_25" data-name="Group 25">
    <g id="Group_24" data-name="Group 24">
      <path id="Path_17" data-name="Path 17" d="M95.387,0a95.387,95.387,0,1,0,95.387,95.387A95.387,95.387,0,0,0,95.387,0Zm0,184.414a89.027,89.027,0,1,1,89.027-89.027A89.027,89.027,0,0,1,95.387,184.414Z" fill="#3d7475"/>
    </g>
  </g>
  <g id="Group_27" data-name="Group 27" transform="translate(85.098 152.201)">
    <g id="Group_26" data-name="Group 26">
      <path id="Path_18" data-name="Path 18" d="M234.723,385.819a3.18,3.18,0,0,0-3.474-2.856l-.123.014.013,0a58.41,58.41,0,0,1-13.475,0,3.181,3.181,0,1,0-.741,6.318,64.4,64.4,0,0,0,14.944,0A3.179,3.179,0,0,0,234.723,385.819Z" transform="translate(-214.113 -382.949)" fill="#3d7475"/>
    </g>
  </g>
  <g id="Group_29" data-name="Group 29" transform="translate(134.851 53.278)">
    <g id="Group_28" data-name="Group 28">
      <path id="Path_19" data-name="Path 19" d="M348.478,135.189A3.179,3.179,0,0,0,344,134.8l-.014.011a3.18,3.18,0,0,0-.382,4.48A57.232,57.232,0,0,1,340.23,216.7a3.18,3.18,0,0,0,4.49,4.505A63.591,63.591,0,0,0,348.478,135.189Z" transform="translate(-339.295 -134.053)" fill="#3d7475"/>
    </g>
  </g>
  <g id="Group_32" data-name="Group 32" transform="translate(70.897 31.806)">
    <g id="Group_31" data-name="Group 31">
      <g id="Group_30" data-name="Group 30">
        <path id="Path_20" data-name="Path 20" d="M186.368,105.743h0Z" transform="translate(-183.184 -95.522)" fill="#3d7475"/>
        <path id="Path_21" data-name="Path 21" d="M217.87,81.794a64.154,64.154,0,0,0-37.426,2.3,3.176,3.176,0,1,0,2.229,5.949,57.762,57.762,0,0,1,33.7-2.067,3.18,3.18,0,0,0,1.494-6.181Z" transform="translate(-178.382 -80.027)" fill="#3d7475"/>
      </g>
    </g>
  </g>
  <g id="Group_34" data-name="Group 34" transform="translate(31.791 56.631)">
    <g id="Group_33" data-name="Group 33">
      <path id="Path_22" data-name="Path 22" d="M103.042,221.624a57.226,57.226,0,0,1-5.749-74.045,3.18,3.18,0,1,0-5.083-3.821l-.055.076a63.591,63.591,0,0,0,6.381,82.293,3.185,3.185,0,0,0,4.505-4.5Z" transform="translate(-79.989 -142.488)" fill="#3d7475"/>
    </g>
  </g>
</svg>
