<svg xmlns="http://www.w3.org/2000/svg" width="473.202" height="154.836" viewBox="0 0 473.202 154.836">
  <path id="Path_4715" data-name="Path 4715" d="M12.834,0h35.4V-58.788h44.3V-86.319h-44.3v-30.636h59.2v-28.359h-94.6ZM232.875-57.753c0-36.639-26.082-59.409-60.03-59.409-33.741,0-60.03,22.77-60.03,59.409S138.483,1.656,172.431,1.656,232.875-21.114,232.875-57.753Zm-84.042,0c0-19.665,11.178-28.773,24.012-28.773,12.42,0,24.012,9.108,24.012,28.773,0,19.458-11.8,28.773-24.426,28.773C159.6-28.98,148.833-38.3,148.833-57.753Zm209.691,0c0-36.639-26.082-59.409-60.03-59.409-33.741,0-60.03,22.77-60.03,59.409S264.132,1.656,298.08,1.656,358.524-21.114,358.524-57.753Zm-84.042,0c0-19.665,11.178-28.773,24.012-28.773,12.42,0,24.012,9.108,24.012,28.773,0,19.458-11.8,28.773-24.426,28.773C285.246-28.98,274.482-38.3,274.482-57.753Zm89.631-.207c0,36.432,22.563,59.616,50.922,59.616,16.974,0,29.187-7.659,35.6-18.216V0h35.4V-153.18h-35.4v53.613c-7.038-10.557-20.286-17.595-35.6-17.595C386.676-117.162,364.113-94.392,364.113-57.96Zm86.526.207c0,18.423-11.8,28.566-25.254,28.566-13.248,0-25.254-10.35-25.254-28.773s12.006-28.359,25.254-28.359C438.84-86.319,450.639-76.176,450.639-57.753Z" transform="translate(-12.834 153.18)" fill="#2e266f" opacity="0.04"/>
</svg>
