<svg xmlns="http://www.w3.org/2000/svg" width="273.276" height="206.016" viewBox="0 0 273.276 206.016">
  <g id="Group_2624" data-name="Group 2624" transform="translate(-1265 -4407)">
    <path id="Path_32" data-name="Path 32" d="M213.868,366.453a5.339,5.339,0,1,0,3.774,1.564A5.376,5.376,0,0,0,213.868,366.453Zm0,0" transform="translate(1167.771 4235.872)" fill="#3d7475"/>
    <path id="Path_33" data-name="Path 33" d="M222.948,106.216l-12.439-56.2a13.323,13.323,0,0,0,8.4-4.635,15.918,15.918,0,0,0,8.465,2.429h10.675a5.337,5.337,0,0,0,5.337-5.337V21.128a5.337,5.337,0,0,0-5.337-5.337H227.374a15.907,15.907,0,0,0-8.684,2.571,13.3,13.3,0,0,0-9.981-4.51H177.2a13.349,13.349,0,0,0-12.435,8.54H152.116a13.877,13.877,0,1,0,0,27.755h27.473V60.9a5.337,5.337,0,1,0,10.675,0V50.146h9.34L213,110.682l-25.357,45.164a15.677,15.677,0,0,1-13.64,7.971h-63.3A44.908,44.908,0,0,0,66.184,124.3a44.4,44.4,0,0,0-27.675,9.555l-.031.025A44.575,44.575,0,0,0,21.65,163.816H10.687a70.754,70.754,0,0,1,70.658-69.37h37.862a5.429,5.429,0,0,1,5.421,5.423V147.8a5.337,5.337,0,0,0,5.337,5.337h28.4a31.834,31.834,0,0,0,31.833-31.8l.027-17.732a5.339,5.339,0,0,0-5.331-5.346h-.006a5.338,5.338,0,0,0-5.337,5.329l-.027,17.737a21.154,21.154,0,0,1-21.158,21.135H135.3v-42.6a16.009,16.009,0,0,0-1.9-7.568,16.007,16.007,0,0,0-7.981-29.885H105.946a15.937,15.937,0,0,0-5.337.917V16.512A16.031,16.031,0,0,0,84.6.5H50.163A50.243,50.243,0,0,0,.63,42.728a5.337,5.337,0,0,0-.248,1.61c0,.033,0,.065,0,.1A50.407,50.407,0,0,0,0,50.663V78.428A16.037,16.037,0,0,0,13.623,94.261L25.442,106.08A81.126,81.126,0,0,0,0,165.119v4.034a5.337,5.337,0,0,0,5.337,5.337h30a5.452,5.452,0,0,0-.106,1.067,30.809,30.809,0,0,0,7.587,20.266H5.337a5.337,5.337,0,0,0,0,10.675h60.23c.206.006.411.017.617.017a30.993,30.993,0,0,0,30.957-30.957,5.452,5.452,0,0,0-.106-1.067h76.971A26.37,26.37,0,0,0,195.187,163.8h6.759a30.865,30.865,0,0,0,5.26,32.025H137.989a5.337,5.337,0,0,0,0,10.675h91.971c.206.006.411.017.617.017a30.944,30.944,0,0,0,28.63-42.716h8.732a5.337,5.337,0,0,0,5.337-5.337,52.348,52.348,0,0,0-50.328-52.246Zm-117-33.125h19.482a5.337,5.337,0,0,1,0,10.675H105.946a5.337,5.337,0,1,1,0-10.675ZM10.675,50.663c0-.329.017-.657.025-.986H69.1A5.337,5.337,0,1,0,69.1,39H12.434A39.557,39.557,0,0,1,50.163,11.176h34.43a5.342,5.342,0,0,1,5.337,5.337V78.428a5.344,5.344,0,0,1-5.337,5.337H16.01a5.343,5.343,0,0,1-5.335-5.337ZM28.9,94.44H41.113a81.289,81.289,0,0,0-7.42,4.793Zm57.567,81.118A20.3,20.3,0,0,1,66.39,195.834c-.069,0-.138-.01-.206-.01h-.615A20.3,20.3,0,0,1,45.9,175.558a5.452,5.452,0,0,0-.106-1.067H86.572a5.452,5.452,0,0,0-.106,1.067ZM32.42,163.816a33.956,33.956,0,0,1,12.653-21.542c.017-.01.031-.025.048-.035a33.824,33.824,0,0,1,21.062-7.262,34.23,34.23,0,0,1,33.759,28.839ZM227.374,26.465h5.337V37.14h-5.337a5.337,5.337,0,1,1,0-10.675Zm-78.46,9.8a3.206,3.206,0,0,1,3.2-3.2h11.759v3.753a13.381,13.381,0,0,0,.265,2.652H152.116a3.206,3.206,0,0,1-3.2-3.2Zm36.013,3.2H177.2a2.655,2.655,0,0,1-2.652-2.652V27.178a2.656,2.656,0,0,1,2.652-2.652h31.507a2.656,2.656,0,0,1,2.652,2.652v9.641a2.655,2.655,0,0,1-2.652,2.652Zm65.932,136.088a20.3,20.3,0,0,1-20.076,20.276c-.069,0-.138-.01-.206-.01h-.615a20.276,20.276,0,0,1-15.91-32.025H247.1a20.249,20.249,0,0,1,3.757,11.759Zm-49.444-22.434,20.353-36.251a41.662,41.662,0,0,1,40.491,36.251Zm0,0" transform="translate(1265 4406.5)" fill="#3d7475"/>
    <path id="Path_34" data-name="Path 34" d="M341.8,154.343a5.337,5.337,0,1,0,0-10.675h-.019a5.337,5.337,0,1,0,.019,10.675Zm0,0" transform="translate(1108.125 4339.747)" fill="#3d7475"/>
  </g>
</svg>
