<svg xmlns="http://www.w3.org/2000/svg" width="16" height="16" viewBox="0 0 16 16">
  <path id="Shape" d="M13.657,16H2.344A2.346,2.346,0,0,1,0,13.657V2.344A2.346,2.346,0,0,1,2.344,0H13.657A2.346,2.346,0,0,1,16,2.344V13.657A2.346,2.346,0,0,1,13.657,16ZM9.406,8a.939.939,0,0,1,.938.938v3.749h1.875V8.615A2.453,2.453,0,0,0,9.875,6.125a2.709,2.709,0,0,0-1.036.223c-.117.044-.237.088-.37.129V6.125H6.593v6.562H8.469V8.938A.938.938,0,0,1,9.406,8ZM3.781,6.125v6.562H5.657V6.125Zm0-2.813V5.188H5.657V3.313Z" fill="#212121"/>
</svg>
