<svg xmlns="http://www.w3.org/2000/svg" xmlns:xlink="http://www.w3.org/1999/xlink" width="197.175" height="111.375" viewBox="0 0 197.175 111.375">
  <defs>
    <filter id="Path_4714" x="0" y="0" width="197.175" height="111.375" filterUnits="userSpaceOnUse">
      <feOffset dy="3" input="SourceAlpha"/>
      <feGaussianBlur stdDeviation="5" result="blur"/>
      <feFlood flood-opacity="0.161"/>
      <feComposite operator="in" in2="blur"/>
      <feComposite in="SourceGraphic"/>
    </filter>
  </defs>
  <g transform="matrix(1, 0, 0, 1, 0, 0)" filter="url(#Path_4714)">
    <path id="Path_4714-2" data-name="Path 4714" d="M21.75-20.025a2.758,2.758,0,0,1-.375,1.35q-3.75,6.975-6.75,12.337t-5.7,9.9Q6.225,8.1,3.6,12.337t-5.55,9.038a63.317,63.317,0,0,1-5.212,7.163,33.89,33.89,0,0,1-6.225,5.775,29.021,29.021,0,0,1-7.425,3.825,26.812,26.812,0,0,1-8.812,1.388,15.454,15.454,0,0,1-5.812-.937,9.03,9.03,0,0,1-3.6-2.513,9.129,9.129,0,0,1-1.838-3.6,16.668,16.668,0,0,1-.525-4.2,13.078,13.078,0,0,1,.15-1.912,8.142,8.142,0,0,1,.375-1.613q.075-.3.3-.3t.225.375q-.15.525-.3,1.238A7.46,7.46,0,0,0-40.8,27.6a8.79,8.79,0,0,0,1.125,4.537,9.147,9.147,0,0,0,3.112,3.15,15.583,15.583,0,0,0,4.688,1.875A25.08,25.08,0,0,0-26.1,37.8a21.079,21.079,0,0,0,6.488-1.05,21.994,21.994,0,0,0,6.487-3.487,36.1,36.1,0,0,0,6.338-6.338,60.884,60.884,0,0,0,6.112-9.6q1.95-3.6,4.125-7.65t4.2-7.762Q9.675-1.8,11.288-4.762T13.65-9.075Q12.15-7.05,10.725-5.25T8.063-2.1A14.821,14.821,0,0,1,5.7.037,3.655,3.655,0,0,1,3.675.825,1.526,1.526,0,0,1,2.55.375,1.949,1.949,0,0,1,2.1-1.05a8.511,8.511,0,0,1,.938-3.188A28.937,28.937,0,0,1,5.513-8.55,33.008,33.008,0,0,1,9-12.825a14.1,14.1,0,0,1,3.975-3,7.988,7.988,0,0,1,3.6-.9,3.56,3.56,0,0,1,.825.075q.6-1.05,1.237-2.1T19.95-21q.525-.975.975-.975.3,0,.563.675A3.523,3.523,0,0,1,21.75-20.025ZM16.95-15.6a1.951,1.951,0,0,0-.6-.075h-.525a10.122,10.122,0,0,0-1.987.187,3.374,3.374,0,0,0-1.613.787A17.9,17.9,0,0,0,9-11.175,28.159,28.159,0,0,0,6.75-7.35,19.973,19.973,0,0,0,5.438-3.937a9.839,9.839,0,0,0-.412,2.212q0,.825.45.825t1.8-1.275A33.99,33.99,0,0,0,10.313-5.55Q12-7.65,13.8-10.275A45.026,45.026,0,0,0,16.95-15.6ZM53.925-26.55a2.77,2.77,0,0,1-.638,1.612,2.308,2.308,0,0,1-1.987.862.925.925,0,0,1-.9-.975,2.938,2.938,0,0,1,.675-1.613A2.046,2.046,0,0,1,52.8-27.6a1.026,1.026,0,0,1,.863.337A1.143,1.143,0,0,1,53.925-26.55ZM55.8-9.525q-.375.375-2.025,1.987a44.575,44.575,0,0,1-3.937,3.375A39.421,39.421,0,0,1,45-.975,9.8,9.8,0,0,1,40.275.45a1.724,1.724,0,0,1-1.95-1.95,9.245,9.245,0,0,1,1.2-3.75q.525-1.05,1.2-2.25t1.388-2.437q.712-1.237,1.388-2.363t1.2-1.95q.15-.225-.15-.338a.722.722,0,0,0-.6.038q-2.55,1.2-4.687,2.025a10.573,10.573,0,0,1-3.713.825,4.73,4.73,0,0,1-1.875-.3,5.814,5.814,0,0,1-1.125-.637,4.685,4.685,0,0,1-.712-.637.817.817,0,0,0-.638-.3q-.525,0-1.988,1.425a19.873,19.873,0,0,0-3.187,4.575q-1.05,1.8-2.175,3.937T21.9-.075a.917.917,0,0,1-.825.525q-.225,0-.75-.637A1.972,1.972,0,0,1,19.8-1.425,5.774,5.774,0,0,1,20.888-3.9Q21.975-5.625,23.4-7.875q1.275-2.025,2.212-3.787a6.527,6.527,0,0,0,.938-2.812,1.718,1.718,0,0,0-.225-.9.965.965,0,0,0-.9-.375,3.84,3.84,0,0,0-1.8.525q-.975.525-1.95,1.125-.3-.15-.3-.375a18.52,18.52,0,0,1,2.288-1.388,5.432,5.432,0,0,1,2.512-.637,2.629,2.629,0,0,1,1.8.487A2.356,2.356,0,0,1,28.5-14.25a5.8,5.8,0,0,1-.225,1.387A7.561,7.561,0,0,1,27.75-11.4q-.15.225-.112.3t.188-.075a20.549,20.549,0,0,1,3.75-4.013,6.714,6.714,0,0,1,2.1-1.312q.3,0,.45.6a3.918,3.918,0,0,0,1.425,1.912,3.785,3.785,0,0,0,2.325.788,9.317,9.317,0,0,0,3.862-.863A43.557,43.557,0,0,0,45.825-16.2a3.862,3.862,0,0,1,1.237-.487A6.846,6.846,0,0,1,48-16.875q.525,0,.525.375a1.209,1.209,0,0,1-.15.525Q46.65-13.35,44.888-10.5a37.543,37.543,0,0,0-2.812,5.4,5.268,5.268,0,0,0-.338,1.163,6.163,6.163,0,0,0-.112,1.012q0,1.725,1.65,1.725a5.379,5.379,0,0,0,1.987-.6,19.153,19.153,0,0,0,2.925-1.725A40.036,40.036,0,0,0,51.675-6.3a51.467,51.467,0,0,0,3.75-3.675q.3-.3.563-.15T55.8-9.525Zm40.875-30q0,1.8-2.062,5.475a74.716,74.716,0,0,1-5.55,8.288A118.151,118.151,0,0,1,80.925-16.2,124.321,124.321,0,0,1,71.1-6.825a14.4,14.4,0,0,0-.525,3.9A4.257,4.257,0,0,0,71.625.262,4.04,4.04,0,0,0,74.55,1.275,9.742,9.742,0,0,0,78.863.188,22.228,22.228,0,0,0,83.1-2.55a38.425,38.425,0,0,0,3.75-3.487Q88.575-7.875,89.775-9.3q.225-.225.3-.075a.9.9,0,0,1,0,.525,43.659,43.659,0,0,1-3.6,4.05,32.547,32.547,0,0,1-4.388,3.675,25.574,25.574,0,0,1-4.912,2.7A13.483,13.483,0,0,1,72,2.625q-4.65,0-4.65-4.5a14.781,14.781,0,0,1,.225-2.4q-.9.6-2.175,1.425a25.97,25.97,0,0,1-2.738,1.537A23.061,23.061,0,0,1,59.55-.075a10.831,10.831,0,0,1-3.3.525A2.16,2.16,0,0,1,54.037-.637,5.709,5.709,0,0,1,53.55-3a13.723,13.723,0,0,1,.862-4.2A49.2,49.2,0,0,1,56.7-12.713Q58.125-15.675,60-18.9t3.938-6.187Q66-28.05,68.025-30.638A40.981,40.981,0,0,1,71.85-34.95a17.754,17.754,0,0,1,4.05-3,9.726,9.726,0,0,1,4.725-1.275,6.4,6.4,0,0,1,3.15.675q1.2.675,1.2,1.575a3.251,3.251,0,0,1-.112.487q-.113.412-.3.938t-.375,1.088a7.741,7.741,0,0,1-.412,1.012Q84.9-34.8,86.25-36.263t2.738-2.7A17.169,17.169,0,0,1,91.8-41.025a5.417,5.417,0,0,1,2.7-.825Q96.675-41.85,96.675-39.525ZM94.35-37.95a3.735,3.735,0,0,0-.3-1.463,1.3,1.3,0,0,0-1.35-.712q-1.575,0-4.5,2.737a49.209,49.209,0,0,0-6.15,7.238A76.471,76.471,0,0,0,75.9-19.8,66.19,66.19,0,0,0,71.25-7.65q1.95-1.575,4.425-3.975T80.7-16.837q2.55-2.812,5.025-5.812t4.388-5.85a40.85,40.85,0,0,0,3.075-5.325A10.2,10.2,0,0,0,94.35-37.95ZM83.7-34.35a4.1,4.1,0,0,0-1.012-2.438A4.05,4.05,0,0,0,79.275-38.1a9.423,9.423,0,0,0-3.713.9,13.7,13.7,0,0,0-4.687,4.275q-1.125,1.5-2.625,3.75t-3.075,4.95q-1.575,2.7-3.075,5.588t-2.662,5.625a50.32,50.32,0,0,0-1.875,5.1,14.164,14.164,0,0,0-.713,3.937q0,2.55,2.325,2.55A9.791,9.791,0,0,0,63.3-2.437,28.949,28.949,0,0,0,67.8-5.1a26.047,26.047,0,0,1,1.462-4.575,68.8,68.8,0,0,1,3.15-6.675q1.988-3.75,4.725-8.025A95.782,95.782,0,0,1,83.4-33a4.079,4.079,0,0,0,.225-.788A3.837,3.837,0,0,0,83.7-34.35Zm42.075,37.5a6.851,6.851,0,0,1-1.388,2.888,11.419,11.419,0,0,1-2.738,2.475,14.976,14.976,0,0,1-3.825,1.762,15.606,15.606,0,0,1-4.65.675,23.9,23.9,0,0,1-6.45-.9,37.246,37.246,0,0,1-6.488-2.513A63.3,63.3,0,0,1,93.6,3.713Q90.225,1.5,86.55-1.05a2.492,2.492,0,0,0-.45-.188.865.865,0,0,0-.525.188q-.6.375-1.088.675t-1.162.75Q82.725.75,82.5.3t.375-.75A67.42,67.42,0,0,0,89.4-4.013q3.075-1.913,5.363-3.6t3.637-2.85a6.653,6.653,0,0,0,1.35-1.313.265.265,0,0,0-.3-.3q-.3.075-.9.262t-1.238.338q-.637.15-1.275.262a6.163,6.163,0,0,1-1.013.112,3.8,3.8,0,0,1-2.062-.712,2.775,2.775,0,0,1-1.088-2.512,3.43,3.43,0,0,1,.975-1.425,11.379,11.379,0,0,1,2.025-1.575.265.265,0,0,1,.3.3,2.864,2.864,0,0,0-.675,2.1,2.436,2.436,0,0,0,.863,1.988,3.359,3.359,0,0,0,2.213.712A6.638,6.638,0,0,0,101.1-13.35a21.967,21.967,0,0,0,3.525-2.775.485.485,0,0,1,.75-.038q.375.338,0,.788-1.275.9-2.7,2.025t-2.25,1.875Q98.625-9.9,95.7-7.725T89.175-3.15a.722.722,0,0,0-.375.337q-.075.188.375.487Q92.925.15,96.6,2.4t7.012,3.975A50.289,50.289,0,0,0,109.8,9.113a15,15,0,0,0,4.875,1.012,10.55,10.55,0,0,0,6.075-1.837A14.735,14.735,0,0,0,125.325,3Q125.625,2.775,125.775,3.15Z" transform="translate(56.4 53.85)" fill="#3d7475"/>
  </g>
</svg>
